# xmcd
# 
# Track frame offsets:
#     150
#     16175
#     49022
#     75727
#     90070
#     118252
#     147211
#     171938
#     199128
#     226558
#     242458
#     265598
# 
# Disc length: 3923
# 
# Revision: 2
# Processed by: cddbd v1.5.2PL0 Copyright (c) Steve Scherf et al.
# Submitted via: fre:ac v1.0.31
# 
DISCID=870f510c
DTITLE=Roy Buchanan - The Millenium Collection
DYEAR=2002
DGENRE=Blues
TTITLE0=Sweet Dreams
TTITLE1=Pete's Blues
TTITLE2=The Messiah Will Come Again
TTITLE3=Filthy Teddy
TTITLE4=After Hours
TTITLE5=Five String Blues
TTITLE6=Hey Joe
TTITLE7=Roy's Bluz
TTITLE8=CC Ryder
TTITLE9=Country Preacher
TTITLE10=Wayfariing Pilgrim
TTITLE11=I'm Evil
EXTD=
EXTT0=
EXTT1=
EXTT2=
EXTT3=
EXTT4=
EXTT5=
EXTT6=
EXTT7=
EXTT8=
EXTT9=
EXTT10=
EXTT11=
PLAYORDER=
